<?xml version="1.0" standalone="no"?>
<!DOCTYPE svg PUBLIC "-//W3C//DTD SVG 20010904//EN"
 "http://www.w3.org/TR/2001/REC-SVG-20010904/DTD/svg10.dtd">
<svg version="1.0" xmlns="http://www.w3.org/2000/svg"
 width="400.000000pt" height="100.000000pt" viewBox="0 0 400.000000 100.000000"
 preserveAspectRatio="xMidYMid meet">
<metadata>
Created by potrace 1.16, written by Peter Selinger 2001-2019
</metadata>
<g transform="translate(0.000000,100.000000) scale(0.100000,-0.100000)"
fill="#000000" stroke="none">
<path d="M0 500 l0 -500 2000 0 2000 0 0 500 0 500 -2000 0 -2000 0 0 -500z
m1590 5 c0 -43 -4 -75 -10 -75 -6 0 -10 32 -10 75 0 43 4 75 10 75 6 0 10 -32
10 -75z m680 65 c0 -5 -13 -10 -30 -10 -20 0 -30 -5 -30 -15 0 -9 9 -15 25
-15 37 0 54 -40 31 -75 -24 -36 -86 -32 -86 6 0 23 9 24 25 2 17 -23 47 -10
43 19 -2 19 -8 23 -36 20 -34 -2 -35 -1 -26 47 6 28 10 31 45 31 22 0 39 -4
39 -10z m150 -65 c0 -60 -3 -75 -15 -75 -11 0 -15 12 -15 51 0 41 -3 50 -15
45 -8 -3 -15 -1 -15 5 0 11 40 48 53 49 4 0 7 -34 7 -75z m-658 21 c4 -6 8
-30 8 -53 0 -32 -4 -43 -15 -43 -11 0 -15 12 -15 45 0 33 -4 45 -15 45 -11 0
-15 -12 -15 -45 0 -33 -4 -45 -15 -45 -11 0 -15 12 -15 45 0 32 -4 45 -14 45
-17 0 -26 -22 -26 -61 0 -16 -4 -29 -10 -29 -5 0 -10 25 -10 55 l0 54 68 -1
c37 0 70 -6 74 -12z m116 -42 l3 -51 -39 -1 c-26 -1 -44 4 -53 14 -11 14 -10
19 10 35 13 11 33 19 44 19 17 0 18 3 9 12 -10 10 -17 10 -33 0 -24 -15 -34
-10 -25 13 4 12 16 15 43 13 l38 -3 3 -51z m112 -8 c0 -43 -5 -67 -14 -75 -18
-15 -68 -11 -74 6 -2 9 5 11 26 7 17 -4 32 -1 36 5 5 7 -3 11 -22 11 -23 0
-32 6 -42 30 -18 44 7 80 55 80 l35 0 0 -64z m104 42 c23 -33 20 -38 -24 -38
-22 0 -40 -5 -40 -10 0 -17 29 -23 45 -10 19 15 30 7 21 -15 -10 -27 -67 -15
-85 16 -13 24 -13 29 2 53 22 33 60 34 81 4z"/>
<path d="M1823 473 c-20 -7 -15 -23 6 -23 10 0 21 7 25 15 5 15 -7 18 -31 8z"/>
<path d="M1924 506 c-9 -23 0 -51 17 -54 19 -4 32 23 24 49 -7 22 -33 25 -41
5z"/>
<path d="M2035 510 c-4 -6 5 -10 20 -10 15 0 24 4 20 10 -3 6 -12 10 -20 10
-8 0 -17 -4 -20 -10z"/>
</g>
</svg>
